<?xml version="1.0" encoding="UTF-8"?>
<svg version="1.1" viewBox="0 0 2048 2048" width="1280" height="1280" xmlns="http://www.w3.org/2000/svg">
<path transform="translate(215,146)" d="m0 0h19l45 3 31 4 33 7 25 7 24 8 20 8 27 12 22 12 20 12 15 10 19 14 14 11 15 13 12 11 5 2 27-10 53-16 28-7 48-10 32-5 40-5 23-2 41-2h56l41 2 32 3 40 5 35 6 51 11 35 10 36 11 24 9 4-1 9-9 11-9 10-9 17-13 18-13 24-15 29-16 31-14 27-10 26-8 30-7 28-5 15-2 48-3h18l47 3 16 3 12 5 14 8 9 7 8 8 10 13 8 17 11 41 5 26 3 22 3 38v32l-3 44-6 36-7 30-8 26-9 25-11 25-8 16-11 21-15 24-11 16 1 8 11 25 7 20 13 42 6 27 7 41 3 30 1 15v17h324l16 3 12 5 12 8 9 8 9 12 7 14 5 16v749l-5 12-9 13-9 8-10 6-10 3-7 1-408 1 10 6 13 11 7 7 10 15 7 15 4 15 2 16-1 16-4 17-7 16-7 11-11 13-12 10-16 9-18 6-12 2-11 1h-676l-47-4-32-5-35-8-26-8-25-9-38-17-27-15-16-10-23-16-16-13-11-9-3-3-4 1-11 9-9 8-19 14-17 11-26 15-20 9-21 8-28 7-21 3-11 1h-17l-22-2-23-5-17-5-24-10-19-10-20-14-12-9-15-14-11-11-13-17-10-14-15-27-12-28-12-36-16-62-13-51-10-30-8-18-9-17-7-10-9-11-13-12-19-13-14-10-6-5-8-11-6-12-2-5v-31l8-16 9-12 11-9 13-6 11-3h19l16 5 14 8 12 8 14 10 15 13 6 6v2l4 2 8 8 11 14 12 16 8 13 9 15 13 28 9 24 8 25 17 66 11 42 9 27 10 25 10 17 9 11 11 11 16 11 23 11 11 3 6 1h20l16-3 12-4 21-10 22-14 5-4-1-3-11-7-8-9-7-11-3-10-1-11v-64l1-17 4-10 3-7-1-9-5-32-2-29-3-8-7-16-4-14-1-6v-25l4-18 8-18 9-13 11-16 8-16 11-28 3-6-12-5-28-11-30-13-21-10-22-12-19-10-45-30-14-11-14-12-11-9-13-12-8-8-7-8-8-8-7-8-10-12-13-18-11-16-8-13-10-18-12-25-10-26-8-25-7-30-5-29-3-28-1-13v-57l3-33 6-35 7-35 9-29 12-36 12-27-1-7-12-17-15-25-15-28-14-32-11-31-9-33-6-30-4-29-2-32v-39l3-36 5-33 7-30 7-25 6-14 8-11 11-12 7-6 13-8 10-5 15-4 18-2zm1118 1391m43 0v1h48v-1zm349 0v1h293v-1z" fill="#FBD28E"/>
<path transform="translate(1638,856)" d="m0 0 340 1 16 3 12 5 12 8 9 8 9 12 7 14 5 16v749l-5 12-9 13-9 8-10 6-10 3-7 1-408 1 10 6 13 11 7 7 10 15 7 15 4 15 2 16-1 16-4 17-7 16-7 11-11 13-12 10-16 9-18 6-12 2-11 1h-676l-47-4-32-5-35-8-26-8-25-9-38-17-27-15-16-10-23-16-16-13-11-9-3-3-4 1-11 9-9 8-19 14-17 11-26 15-20 9-21 8-28 7-21 3-11 1h-17l-22-2-23-5-17-5-24-10-19-10-20-14-12-9-15-14-11-11-13-17-10-14-15-27-12-28-12-36-16-62-13-51-10-30-8-18-9-17-7-10-9-11-13-12-19-13-14-10-6-5-8-11-6-12-2-5v-31l8-16 9-12 11-9 13-6 11-3h19l16 5 14 8 12 8 14 10 15 13 6 6v2l4 2 8 8 11 14 12 16 8 13 9 15 13 28 9 24 8 25 17 66 11 42 9 27 10 25 10 17 9 11 11 11 16 11 23 11 11 3 6 1h20l16-3 12-4 21-10 22-14 5-4-1-3-11-7-8-9-7-11-3-10-1-11v-64l1-17 4-10 4-9h2l2-4 11-9 10-6 9-3 6-1h411v-533l1-62 1-19 3-14 5-12 7-10 9-10 10-8 15-8 20-5h647zm-305 681m43 0v1h48v-1zm349 0v1h293v-1z" fill="#E1E4E6"/>
<path transform="translate(52,1325)" d="m0 0h19l16 5 14 8 12 8 14 10 15 13 6 6v2l4 2 8 8 11 14 12 16 8 13 9 15 13 28 9 24 8 25 17 66 11 42 9 27 10 25 10 17 9 11 11 11 16 11 23 11 11 3 6 1h20l16-3 12-4 21-10 22-14 5-4 2-2 6 2 17 2h1085l19 1 12 7 13 11 7 7 10 15 7 15 4 15 2 16-1 16-4 17-7 16-7 11-11 13-12 10-16 9-18 6-12 2-11 1h-676l-47-4-32-5-35-8-26-8-25-9-38-17-27-15-16-10-23-16-16-13-11-9-3-3-4 1-11 9-9 8-19 14-17 11-26 15-20 9-21 8-28 7-21 3-11 1h-17l-22-2-23-5-17-5-24-10-19-10-20-14-12-9-15-14-11-11-13-17-10-14-15-27-12-28-12-36-16-62-13-51-10-30-8-18-9-17-7-10-9-11-13-12-19-13-14-10-6-5-8-11-6-12-2-5v-31l8-16 9-12 11-9 13-6z" fill="#EAA451"/>
<path transform="translate(477,1538)" d="m0 0h1512l59 1v133l-5 12-9 13-9 8-10 6-10 3-7 1h-1514l-21-3-15-9-7-7-9-14-3-10-1-11v-64l1-17 4-10 4-9h2l2-4 11-9 10-6 9-3z" fill="#7393E7"/>
<path transform="translate(52,1325)" d="m0 0h19l16 5 14 8 12 8 14 10 15 13 6 6v2l4 2 8 8 11 14 12 16 8 13 9 15 13 28 9 24 8 25 17 66 11 42 9 27 10 25 10 17 9 11 11 11 16 11 23 11 11 3 6 1h20l16-3 12-4 21-10 22-14 5-4 2-2 6 2 17 2h385v1l-32 1-5 2-14 11-14 14-8 13-6 14-4 15-1 7v23l4 18 6 15 8 13 12 14 14 11 14 8 9 4 2 2h-12l-27-3-26-4-35-8-26-8-25-9-38-17-27-15-16-10-23-16-16-13-11-9-3-3-4 1-11 9-9 8-19 14-17 11-26 15-20 9-21 8-28 7-21 3-11 1h-17l-22-2-23-5-17-5-24-10-19-10-20-14-12-9-15-14-11-11-13-17-10-14-15-27-12-28-12-36-16-62-13-51-10-30-8-18-9-17-7-10-9-11-13-12-19-13-14-10-6-5-8-11-6-12-2-5v-31l8-16 9-12 11-9 13-6z" fill="#EAA551"/>
<path transform="translate(676,1252)" d="m0 0h33l30 3 33 7 33 11 29 14 19 11 18 12 10 8 7 4 1 217h-412l-12 3-10 5-9 7-6 5-1 2h-2l-3-13-4-26-2-29-3-8-7-16-4-14-1-6v-25l4-18 8-18 9-13 11-16 6-11 8-6 14-13 19-14 11-8 23-13 22-11 24-10 22-7 19-5 17-3 10-2 21-3z" fill="#EAA551"/>
<path transform="translate(477,1538)" d="m0 0h411v31l-1 145-70 1h-333l-21-3-15-9-7-7-9-14-3-10-1-11v-64l1-17 4-10 4-9h2l2-4 11-9 10-6 9-3z" fill="#6A87D1"/>
<path transform="translate(632,692)" d="m0 0h14l10 5 8 9 4 10 1 8v46l-3 12-6 9-8 6h-2l5 5 11 9 10 12 9 15 8 19 3 12 1 7v9l-2 15-5 15-8 16-9 13-11 12-13 10-15 9-21 9-23 6-10 2h-12l-6-1-30 11-21 9-26 12-31 16-28 17-10 6-7 2h-8l-10-3-10-9-4-6-2-6v-10l3-9 6-8 12-9 21-13 24-13 17-9 6-3 1-1-11-8-12-12-7-10-8-13-6-15-3-10v-6l-26 3-33 5-9-2-10-6-8-11-1-3v-16l4-9 5-6 12-6 25-5 31-4 27-3 3-6 13-13h2v-2l18-13 14-8 21-8 20-5 15-2h36l21 4 11 3h1l-1-5v-56l3-9 6-8 8-6z" fill="#FE93A9"/>
<path transform="translate(85,235)" d="m0 0 1 2 3-1 14 3 30 7 27 7 16 5 21 7 30 12 24 11 31 17 12 7 14 9 16 11 16 12 13 11 14 11 7 6 5 5-5 5-16 12-18 14-11 9-11 10-8 7-13 12-25 25-7 8-10 11-9 11-10 12-12 16-11 15-12 17-14 24-12 21-12 22-2 3-4-2-14-21-12-20-15-28-14-32-11-31-9-33-6-30-4-29-2-32v-39l3-36 5-33z" fill="#FE93A9"/>
<path transform="translate(1678,236)" d="m0 0 2 4 5 21 4 24 3 26 2 26v32l-3 44-6 36-7 30-8 26-9 25-11 25-8 16-11 21-15 24-11 16h-2l-14-26-6-10-6-11-6-10-6-11-12-18-9-12-8-11-9-12-4-5v-2h-2l-6-7v-2h-2l-4-5v-2h-2l-7-8-1-3h-2v-2h-2l-4-5v-2l-4-2-7-8-10-10-3-2v-2l-4-2-4-3v-2l-4-2-15-14-8-7-14-11-12-9-15-12-5-5 3-5 16-13 11-9 10-8 14-10 21-14 11-7 21-12 21-11 33-15 20-8 21-7 24-7 40-10z" fill="#FE93A9"/>
<path transform="translate(1530,146)" d="m0 0h18l47 3 16 3 12 5 14 8 9 7 8 8 10 13 8 17 6 22v5l-26 5-44 11-20 6-12 4-21 8-18 7-14 7-23 11-25 14-11 7-24 16-15 11-32 26-5 4-2 4-7-4-10-7-16-10-19-12-15-9-25-13-19-10-32-15-28-12-9-4 2-4 8-8 11-9 10-9 17-13 18-13 24-15 29-16 31-14 27-10 26-8 30-7 28-5 15-2z" fill="#EAA551"/>
<path transform="translate(215,146)" d="m0 0h19l45 3 31 4 33 7 25 7 24 8 20 8 27 12 22 12 20 12 15 10 19 14 14 11 15 13 12 11 2 4-18 8-24 10-25 12-24 12-22 12-16 10-38 24-11 8-6-5-8-7-16-13-10-8-13-10-19-13-20-13-11-6-18-10-28-13-21-9-27-10-26-8-36-9-22-5-13-2 1-9 5-18 6-14 8-11 11-12 7-6 13-8 10-5 15-4 18-2z" fill="#EAA551"/>
<path transform="translate(1459,1078)" d="m0 0h22l20 4 19 8 16 9 12 9 11 10 8 10 8 13 5 11 5 17 2 12 1 11v14l-3 19-6 18-8 16-10 14-12 13-14 11-21 11-18 6-15 3h-25l-22-5-15-6-12-6-14-10-13-12-11-14-9-16-6-15-4-15-1-7v-24l2-14 5-17 8-17 12-17 18-18 18-12 15-7 19-5z" fill="#FDFDFD"/>
<path transform="translate(817,1714)" d="m0 0h52v1l-32 1-5 2-14 11-14 14-8 13-6 14-4 15-1 7v23l4 18 6 15 8 13 12 14 14 11 14 8 9 4 2 2h-12l-27-3-26-4-35-8-26-8-25-9-38-17-27-15-16-10-23-16-16-13-11-9-3-3-5-3-11-11-7-8-8-8v-2h-2l-7-8-9-11-10-13-4-5 1-1z" fill="#FBD28F"/>
<path transform="translate(1232,691)" d="m0 0 12 2 9 6 7 8 3 9 1 7v44l-2 12 7-3 15-3 17-2h31l19 3 21 6 16 7 14 8 11 8 12 11 9 9 3 4v2l16 1 35 4 24 4 15 5 10 9 2 4-1 1-129 1h-181l-48-1v-6l8-16 7-11 9-10 9-9 8-6-4-4-7-6-5-10-2-16 1-46 3-9 4-6 8-7 7-3z" fill="#FE93A7"/>
<path transform="translate(683,1449)" d="m0 0h17l18 3 15 5 14 7 11 8 13 13 13 18 13 19 12 14 1 3h-333l-12 3-10 5-9 7-6 5-1 2h-2l-3-13-4-26-1-15v-13l5 4 7 8 11 9 14 9 17 8 10 2 13 1h20l13-3 18-8 14-10 12-11 9-11 7-8 8-7 14-9 15-7 25-8z" fill="#FBD28E"/>
<path transform="translate(52,1325)" d="m0 0h19l16 5 14 8 12 8 14 10 15 13-3 9-7 15-8 15-12 17-11 13-16 16h-2v2l-13 10-4 2-11-10-19-13-14-10-6-5-8-11-6-12-2-5v-31l8-16 9-12 11-9 13-6z" fill="#FCD38F"/>
<path transform="translate(853,743)" d="m0 0h10l12 6 14 12 10 7 11 5 9 3 12 2h10l16-3 16-7 11-8 13-11 9-5 4-1h8l9 3 6 4 8 9 3 8v11l-4 9-6 8-12 12-14 10-16 9-19 7-12 3-16 2h-18l-21-3-24-8-17-9-11-8-10-9-4-3v-2h-2l-7-10-3-8v-10l3-9 9-10 9-5z" fill="#484F59"/>
<path transform="translate(476,827)" d="m0 0h19l32 2 11 4 8 7 5 8 2 8-1 11-5 9-7 7-9 4-6 1h-65l-38 2-36 5-27 4-9-2-10-6-8-11-1-3v-16l4-9 5-6 12-6 25-5 31-4 29-3z" fill="#484F59"/>
<path transform="translate(549,933)" d="m0 0h7l12 5 8 8 5 11v13l-5 10-7 7-12 6-30 11-25 11-29 14-26 14-24 15-10 5-4 1h-8l-10-3-10-9-4-6-2-6v-10l3-9 6-8 12-9 21-13 24-13 17-9 28-13 29-12 23-8z" fill="#484F59"/>
<path transform="translate(1232,691)" d="m0 0 12 2 9 6 7 8 3 9 1 7v44l-2 13-6 9-8 7-10 4h-10l-8-3-8-6-6-9-2-7-1-12 1-46 3-9 4-6 8-7 7-3z" fill="#484F59"/>
<path transform="translate(632,692)" d="m0 0h14l10 5 8 9 4 10 1 8v46l-3 12-6 9-8 6-8 3h-11l-10-4-7-6-5-9-2-8v-56l3-9 6-8 8-6z" fill="#484F59"/>
<path transform="translate(1360,828)" d="m0 0h77l45 5 30 5 15 5 10 9 2 4h-219l1-8 6-9 7-6 11-4z" fill="#484F59"/>
</svg>
